<?xml version="1.0" standalone="no"?>
<!DOCTYPE svg PUBLIC "-//W3C//DTD SVG 20010904//EN"
 "http://www.w3.org/TR/2001/REC-SVG-20010904/DTD/svg10.dtd">
<svg version="1.0" xmlns="http://www.w3.org/2000/svg"
 width="700.000000pt" height="700.000000pt" viewBox="0 0 700.000000 700.000000"
 preserveAspectRatio="xMidYMid meet">
<metadata>
Created by potrace 1.11, written by Peter Selinger 2001-2013
</metadata>
<g transform="translate(0.000000,700.000000) scale(0.100000,-0.100000)"
fill="#000000" stroke="none">
<path d="M3317 6976 c-199 -82 -333 -275 -332 -476 l0 -55 -114 -23 c-243 -49
-490 -149 -675 -275 -121 -82 -313 -275 -391 -392 -206 -309 -325 -698 -379
-1230 -5 -47 -11 -133 -21 -300 -2 -38 -7 -257 -10 -485 -8 -659 -12 -764 -41
-990 -39 -317 -143 -519 -308 -600 -65 -32 -124 -45 -247 -54 -142 -11 -243
-55 -336 -144 -107 -102 -161 -235 -157 -382 2 -108 7 -129 49 -219 68 -143
219 -258 372 -284 50 -9 309 -12 907 -12 l836 0 1 -35 c1 -19 1 -38 1 -42 -3
-21 33 -193 54 -257 29 -88 89 -202 146 -281 45 -62 195 -212 232 -232 13 -7
52 -30 87 -51 72 -44 179 -89 265 -111 292 -75 630 -10 872 168 208 153 367
403 406 639 3 18 8 42 10 55 3 13 6 46 7 75 1 29 4 57 6 62 2 7 294 10 851 9
923 -1 909 -1 1027 57 309 152 386 568 151 817 -105 113 -207 157 -392 172
-174 15 -264 54 -349 152 -73 85 -149 285 -171 446 -3 26 -7 54 -9 62 -3 15
-13 122 -20 220 -4 52 -7 163 -21 930 -3 179 -7 348 -9 375 -2 28 -7 88 -10
135 -3 47 -7 99 -9 115 -2 17 -7 60 -11 97 -3 37 -8 77 -10 89 -3 13 -7 41
-10 64 -6 37 -29 164 -39 210 -48 220 -88 341 -177 530 -109 233 -275 438
-475 588 -179 134 -472 259 -722 308 l-108 22 -2 55 c-7 215 -152 415 -349
483 -45 15 -83 19 -187 19 -115 0 -138 -3 -189 -24z"/>
<path d="M1706 6643 c-22 -6 -98 -58 -171 -116 -141 -114 -299 -301 -408 -482
-118 -197 -244 -552 -271 -765 -4 -25 -8 -56 -11 -70 -10 -54 -15 -120 -21
-265 l-7 -150 27 -32 c48 -56 123 -53 168 7 15 21 20 48 23 144 4 116 11 215
20 266 3 14 7 41 10 60 50 312 170 604 344 840 110 148 270 303 378 365 50 29
70 88 48 141 -20 49 -72 71 -129 57z"/>
<path d="M5244 6640 c-31 -12 -64 -59 -64 -91 0 -52 18 -76 100 -133 224 -158
434 -431 553 -721 48 -117 106 -318 122 -420 23 -151 34 -269 36 -393 2 -67 6
-90 23 -115 43 -63 151 -55 180 13 21 52 8 321 -25 505 -6 33 -13 73 -16 89
-3 16 -22 91 -44 167 -116 410 -348 772 -644 1004 -125 98 -168 116 -221 95z"/>
<path d="M872 6589 c-75 -37 -225 -198 -307 -328 -96 -154 -172 -367 -200
-565 -3 -20 -7 -51 -10 -69 -9 -69 -7 -215 4 -236 35 -65 137 -73 180 -13 15
22 21 51 25 144 17 332 143 636 338 816 125 115 128 119 128 150 0 94 -75 142
-158 101z"/>
<path d="M6060 6599 c-33 -13 -62 -54 -65 -93 -3 -32 19 -86 35 -86 17 0 177
-166 218 -227 90 -132 164 -312 187 -453 3 -19 8 -42 10 -50 7 -26 18 -163 17
-209 -1 -60 20 -106 59 -130 35 -21 67 -19 111 7 38 22 48 66 43 177 -15 297
-97 552 -249 775 -69 101 -220 254 -276 279 -50 23 -55 23 -90 10z"/>
</g>
</svg>
